<svg width="16" height="17" viewBox="0 0 16 17" fill="none" xmlns="http://www.w3.org/2000/svg">
<g filter="url(#filter0_i_38_87)">
<path d="M2.22498 3.76C2.19219 3.7604 2.15968 3.75393 2.12954 3.74102C2.0994 3.7281 2.0723 3.70902 2.04998 3.685C1.94998 3.585 1.94998 3.43 2.04998 3.33C3.23498 2.15 4.80498 1.5 6.47998 1.5C7.09498 1.5 7.70998 1.59 8.29498 1.77C8.35771 1.78961 8.41019 1.83313 8.44107 1.89115C8.47195 1.94917 8.47874 2.01701 8.45998 2.08C8.41998 2.215 8.27998 2.29 8.14998 2.245C7.60793 2.08372 7.04551 2.00121 6.47998 2C4.93998 2 3.48998 2.6 2.40498 3.69C2.35498 3.74 2.28998 3.76 2.22498 3.76Z" fill="url(#paint0_radial_38_87)"/>
</g>
<g filter="url(#filter1_i_38_87)">
<path d="M1.25 8.74001C1.11 8.74001 1 8.63001 1 8.49001C1 5.47001 3.46 3.01001 6.48 3.01001C6.62 3.01001 6.73 3.12001 6.73 3.26001C6.73 3.40001 6.62 3.51001 6.48 3.51001C3.735 3.51001 1.5 5.74501 1.5 8.49001C1.5 8.63001 1.39 8.74001 1.25 8.74001Z" fill="url(#paint1_linear_38_87)"/>
</g>
<path d="M2.5 8.505V9.94C2.5 13.015 4.995 15.51 8.07 15.51H11.89C12.235 15.51 12.515 15.23 12.515 14.885V14.57C12.515 11.495 10.02 9 6.945 9H3L2.5 8.505Z" fill="url(#paint2_linear_38_87)"/>
<path d="M2.5 8.505V9.94C2.5 13.015 4.995 15.51 8.07 15.51H11.89C12.235 15.51 12.515 15.23 12.515 14.885V14.57C12.515 11.495 10.02 9 6.945 9H3L2.5 8.505Z" fill="url(#paint3_linear_38_87)"/>
<g filter="url(#filter2_f_38_87)">
<path d="M3.15747 9.151V10.321C3.15747 12.829 5.32497 14.864 7.99597 14.864H11.3145C11.6145 14.864 11.8575 14.6355 11.8575 14.354V14.0975C11.8575 11.5895 9.68997 9.5545 7.01897 9.5545H3.59197L3.15747 9.151Z" fill="url(#paint4_linear_38_87)"/>
</g>
<g filter="url(#filter3_f_38_87)">
<path d="M9.06052 13.74L3.77902 10.78C3.63567 10.7017 3.52927 10.5698 3.48323 10.4131C3.43719 10.2564 3.45528 10.0878 3.53352 9.94448C3.61176 9.80113 3.74374 9.69474 3.90042 9.6487C4.05711 9.60266 4.22567 9.62074 4.36902 9.69898L9.71702 12.5365C9.79604 12.5796 9.8658 12.6378 9.92231 12.7079C9.97882 12.778 10.021 12.8585 10.0464 12.9448C10.0718 13.0312 10.0799 13.1217 10.0703 13.2112C10.0607 13.3007 10.0336 13.3875 9.99052 13.4665C9.94741 13.5455 9.88916 13.6153 9.8191 13.6718C9.74903 13.7283 9.66852 13.7704 9.58216 13.7958C9.4958 13.8212 9.40529 13.8294 9.31578 13.8198C9.22628 13.8102 9.13954 13.7831 9.06052 13.74Z" fill="url(#paint5_linear_38_87)"/>
</g>
<g filter="url(#filter4_i_38_87)">
<path d="M11.405 8.96499C11.265 8.96499 11.155 8.85499 11.155 8.71499C11.155 8.57499 11.265 8.46499 11.405 8.46499C12.045 8.46499 12.66 8.26999 13.185 7.90499C13.5906 7.61685 13.9215 7.23605 14.1502 6.79427C14.3789 6.35248 14.4988 5.86247 14.5 5.36499C14.5 5.22499 14.61 5.11499 14.75 5.11499C14.89 5.11499 15 5.22999 15 5.36499C15 6.53499 14.43 7.63499 13.47 8.30999C12.8668 8.73815 12.1448 8.96715 11.405 8.96499Z" fill="url(#paint6_linear_38_87)"/>
</g>
<g filter="url(#filter5_i_38_87)">
<path d="M14 2.73999V3.71499C14 4.21073 13.9023 4.70162 13.7126 5.15962C13.5229 5.61762 13.2448 6.03378 12.8943 6.38432C12.1863 7.09227 11.2261 7.48999 10.225 7.48999H7.62996C7.51724 7.48999 7.40914 7.44521 7.32944 7.36551C7.24973 7.28581 7.20496 7.17771 7.20496 7.06499V6.84999C7.20496 4.76499 8.89496 2.99999 10.98 2.99999H13.655L14 2.73999Z" fill="url(#paint7_linear_38_87)"/>
</g>
<g filter="url(#filter6_f_38_87)">
<path d="M13.634 3.285L13.3325 3.888C13.3325 5.6115 11.9355 7.1095 10.2125 7.1095H7.92249C7.87627 7.1097 7.83047 7.10075 7.78774 7.08315C7.745 7.06556 7.70618 7.03967 7.6735 7.00699C7.64082 6.97431 7.61493 6.93549 7.59734 6.89275C7.57974 6.85002 7.57079 6.80422 7.57099 6.758V6.5805C7.57099 4.8575 9.11349 3.3985 10.8365 3.3985L13.3325 3.44L13.634 3.285Z" fill="url(#paint8_linear_38_87)"/>
</g>
<g filter="url(#filter7_f_38_87)">
<path d="M9.23352 3.789C8.63452 4.1065 7.42852 5.117 7.35852 7.1715" stroke="url(#paint9_linear_38_87)" stroke-width="0.1" stroke-linecap="round"/>
</g>
<g filter="url(#filter8_f_38_87)">
<path d="M11.3265 6.865C12.259 6.4165 13.6245 5.247 13.564 3.539" stroke="url(#paint10_linear_38_87)" stroke-width="0.3" stroke-linecap="round"/>
</g>
<path d="M9.21499 6.20501C9.25499 6.20501 9.29999 6.19501 9.33499 6.17501L13.375 3.97001C13.76 3.75501 14 3.35501 14 2.91501V1.76501C14 1.62501 13.885 1.51001 13.745 1.51001C13.605 1.51001 13.49 1.62501 13.49 1.76501V2.91001C13.49 3.16501 13.35 3.39501 13.13 3.52001L9.08999 5.72501C8.96499 5.79001 8.91999 5.94501 8.98999 6.07001C9.03499 6.15501 9.12499 6.20501 9.21499 6.20501Z" fill="url(#paint11_linear_38_87)"/>
<path d="M9.21499 6.20501C9.25499 6.20501 9.29999 6.19501 9.33499 6.17501L13.375 3.97001C13.76 3.75501 14 3.35501 14 2.91501V1.76501C14 1.62501 13.885 1.51001 13.745 1.51001C13.605 1.51001 13.49 1.62501 13.49 1.76501V2.91001C13.49 3.16501 13.35 3.39501 13.13 3.52001L9.08999 5.72501C8.96499 5.79001 8.91999 5.94501 8.98999 6.07001C9.03499 6.15501 9.12499 6.20501 9.21499 6.20501Z" fill="url(#paint12_radial_38_87)"/>
<path d="M9.21499 6.20501C9.25499 6.20501 9.29999 6.19501 9.33499 6.17501L13.375 3.97001C13.76 3.75501 14 3.35501 14 2.91501V1.76501C14 1.62501 13.885 1.51001 13.745 1.51001C13.605 1.51001 13.49 1.62501 13.49 1.76501V2.91001C13.49 3.16501 13.35 3.39501 13.13 3.52001L9.08999 5.72501C8.96499 5.79001 8.91999 5.94501 8.98999 6.07001C9.03499 6.15501 9.12499 6.20501 9.21499 6.20501Z" fill="url(#paint13_radial_38_87)"/>
<g filter="url(#filter9_f_38_87)">
<path d="M9.36353 5.9845L13.324 3.792C13.4804 3.70554 13.6107 3.57878 13.7014 3.4249C13.7921 3.27102 13.84 3.09564 13.84 2.917V1.75" stroke="url(#paint14_linear_38_87)" stroke-width="0.125" stroke-linecap="round"/>
</g>
<g filter="url(#filter10_f_38_87)">
<path d="M14.86 5.36749C14.88 5.96699 14.5335 7.53149 13.17 8.27249" stroke="url(#paint15_linear_38_87)" stroke-width="0.1" stroke-linecap="round"/>
</g>
<g filter="url(#filter11_f_38_87)">
<path d="M11.317 8.777C11.778 8.79 12.8575 8.6205 13.6245 7.996" stroke="url(#paint16_linear_38_87)" stroke-width="0.1" stroke-linecap="round"/>
</g>
<g filter="url(#filter12_f_38_87)">
<path d="M8.35754 9.70551C9.60254 10.0155 12.097 11.4805 12.1125 14.864" stroke="url(#paint17_linear_38_87)" stroke-width="0.25" stroke-linecap="round"/>
</g>
<g filter="url(#filter13_f_38_87)">
<path d="M3.39001 10.951C3.55501 11.946 4.54851 14.0695 7.20501 14.607" stroke="url(#paint18_radial_38_87)" stroke-width="0.25" stroke-linecap="round"/>
</g>
<g filter="url(#filter14_ii_38_87)">
<path fill-rule="evenodd" clip-rule="evenodd" d="M3.05 6.58649C3.19587 6.58649 3.33576 6.64443 3.43891 6.74758C3.54205 6.85072 3.6 6.99062 3.6 7.13649V8.94849C3.60005 9.02762 3.62097 9.10535 3.66065 9.17382C3.70033 9.2423 3.75736 9.29909 3.826 9.33849L9.9445 12.8455C10.009 12.8804 10.0658 12.9279 10.1116 12.9852C10.1574 13.0424 10.1913 13.1082 10.2114 13.1788C10.2314 13.2493 10.2371 13.3231 10.2282 13.3959C10.2193 13.4687 10.1959 13.5389 10.1594 13.6025C10.1229 13.6661 10.0741 13.7218 10.0158 13.7663C9.95751 13.8107 9.89091 13.8431 9.81993 13.8614C9.74894 13.8798 9.675 13.8838 9.60246 13.8731C9.52991 13.8625 9.46023 13.8374 9.3975 13.7995L3.28 10.293C3.04305 10.1574 2.84613 9.96154 2.70916 9.72536C2.57219 9.48918 2.50004 9.22101 2.5 8.94799V7.13649C2.5 6.99062 2.55795 6.85072 2.66109 6.74758C2.76424 6.64443 2.90413 6.58649 3.05 6.58649Z" fill="url(#paint19_linear_38_87)"/>
</g>
<path fill-rule="evenodd" clip-rule="evenodd" d="M3.05 6.58649C3.19587 6.58649 3.33576 6.64443 3.43891 6.74758C3.54205 6.85072 3.6 6.99062 3.6 7.13649V8.94849C3.60005 9.02762 3.62097 9.10535 3.66065 9.17382C3.70033 9.2423 3.75736 9.29909 3.826 9.33849L9.9445 12.8455C10.009 12.8804 10.0658 12.9279 10.1116 12.9852C10.1574 13.0424 10.1913 13.1082 10.2114 13.1788C10.2314 13.2493 10.2371 13.3231 10.2282 13.3959C10.2193 13.4687 10.1959 13.5389 10.1594 13.6025C10.1229 13.6661 10.0741 13.7218 10.0158 13.7663C9.95751 13.8107 9.89091 13.8431 9.81993 13.8614C9.74894 13.8798 9.675 13.8838 9.60246 13.8731C9.52991 13.8625 9.46023 13.8374 9.3975 13.7995L3.28 10.293C3.04305 10.1574 2.84613 9.96154 2.70916 9.72536C2.57219 9.48918 2.50004 9.22101 2.5 8.94799V7.13649C2.5 6.99062 2.55795 6.85072 2.66109 6.74758C2.76424 6.64443 2.90413 6.58649 3.05 6.58649Z" fill="url(#paint20_linear_38_87)"/>
<path fill-rule="evenodd" clip-rule="evenodd" d="M3.05 6.58649C3.19587 6.58649 3.33576 6.64443 3.43891 6.74758C3.54205 6.85072 3.6 6.99062 3.6 7.13649V8.94849C3.60005 9.02762 3.62097 9.10535 3.66065 9.17382C3.70033 9.2423 3.75736 9.29909 3.826 9.33849L9.9445 12.8455C10.009 12.8804 10.0658 12.9279 10.1116 12.9852C10.1574 13.0424 10.1913 13.1082 10.2114 13.1788C10.2314 13.2493 10.2371 13.3231 10.2282 13.3959C10.2193 13.4687 10.1959 13.5389 10.1594 13.6025C10.1229 13.6661 10.0741 13.7218 10.0158 13.7663C9.95751 13.8107 9.89091 13.8431 9.81993 13.8614C9.74894 13.8798 9.675 13.8838 9.60246 13.8731C9.52991 13.8625 9.46023 13.8374 9.3975 13.7995L3.28 10.293C3.04305 10.1574 2.84613 9.96154 2.70916 9.72536C2.57219 9.48918 2.50004 9.22101 2.5 8.94799V7.13649C2.5 6.99062 2.55795 6.85072 2.66109 6.74758C2.76424 6.64443 2.90413 6.58649 3.05 6.58649Z" fill="url(#paint21_radial_38_87)"/>
<path fill-rule="evenodd" clip-rule="evenodd" d="M3.05 6.58649C3.19587 6.58649 3.33576 6.64443 3.43891 6.74758C3.54205 6.85072 3.6 6.99062 3.6 7.13649V8.94849C3.60005 9.02762 3.62097 9.10535 3.66065 9.17382C3.70033 9.2423 3.75736 9.29909 3.826 9.33849L9.9445 12.8455C10.009 12.8804 10.0658 12.9279 10.1116 12.9852C10.1574 13.0424 10.1913 13.1082 10.2114 13.1788C10.2314 13.2493 10.2371 13.3231 10.2282 13.3959C10.2193 13.4687 10.1959 13.5389 10.1594 13.6025C10.1229 13.6661 10.0741 13.7218 10.0158 13.7663C9.95751 13.8107 9.89091 13.8431 9.81993 13.8614C9.74894 13.8798 9.675 13.8838 9.60246 13.8731C9.52991 13.8625 9.46023 13.8374 9.3975 13.7995L3.28 10.293C3.04305 10.1574 2.84613 9.96154 2.70916 9.72536C2.57219 9.48918 2.50004 9.22101 2.5 8.94799V7.13649C2.5 6.99062 2.55795 6.85072 2.66109 6.74758C2.76424 6.64443 2.90413 6.58649 3.05 6.58649Z" fill="url(#paint22_radial_38_87)"/>
<g filter="url(#filter15_f_38_87)">
<path d="M3.24854 7.13651V8.89401C3.24855 9.07371 3.29699 9.25009 3.38876 9.40459C3.48053 9.5591 3.61224 9.68602 3.77004 9.77201L9.90904 13.115" stroke="url(#paint23_radial_38_87)" stroke-width="0.25" stroke-linecap="round"/>
<path d="M3.24854 7.13651V8.89401C3.24855 9.07371 3.29699 9.25009 3.38876 9.40459C3.48053 9.5591 3.61224 9.68602 3.77004 9.77201L9.90904 13.115" stroke="url(#paint24_linear_38_87)" stroke-width="0.25" stroke-linecap="round"/>
<path d="M3.24854 7.13651V8.89401C3.24855 9.07371 3.29699 9.25009 3.38876 9.40459C3.48053 9.5591 3.61224 9.68602 3.77004 9.77201L9.90904 13.115" stroke="url(#paint25_linear_38_87)" stroke-width="0.25" stroke-linecap="round"/>
</g>
<g filter="url(#filter16_f_38_87)">
<path d="M1.30051 8.48001C1.28751 7.63801 1.64801 5.54401 3.03651 4.46301" stroke="url(#paint26_linear_38_87)" stroke-width="0.125" stroke-linecap="round"/>
</g>
<g filter="url(#filter17_f_38_87)">
<path d="M6.538 3.19299C5.2185 3.19299 3.8995 3.66949 3.0365 4.46299" stroke="url(#paint27_linear_38_87)" stroke-width="0.125" stroke-linecap="round"/>
</g>
<g filter="url(#filter18_f_38_87)">
<path d="M8.31349 1.98301C7.85049 1.86051 6.68449 1.64201 5.72449 1.74501" stroke="url(#paint28_linear_38_87)" stroke-width="0.125" stroke-linecap="round"/>
</g>
<g filter="url(#filter19_f_38_87)">
<path d="M2.18347 3.53001C2.45447 3.23001 3.22097 2.54251 4.11747 2.20151" stroke="url(#paint29_linear_38_87)" stroke-width="0.125" stroke-linecap="round"/>
</g>
<defs>
<filter id="filter0_i_38_87" x="1.89998" y="1.45" width="6.57042" height="2.31001" filterUnits="userSpaceOnUse" color-interpolation-filters="sRGB">
<feFlood flood-opacity="0" result="BackgroundImageFix"/>
<feBlend mode="normal" in="SourceGraphic" in2="BackgroundImageFix" result="shape"/>
<feColorMatrix in="SourceAlpha" type="matrix" values="0 0 0 0 0 0 0 0 0 0 0 0 0 0 0 0 0 0 127 0" result="hardAlpha"/>
<feOffset dx="-0.075" dy="-0.05"/>
<feGaussianBlur stdDeviation="0.0625"/>
<feComposite in2="hardAlpha" operator="arithmetic" k2="-1" k3="1"/>
<feColorMatrix type="matrix" values="0 0 0 0 0.776471 0 0 0 0 0.733333 0 0 0 0 0.847059 0 0 0 1 0"/>
<feBlend mode="normal" in2="shape" result="effect1_innerShadow_38_87"/>
</filter>
<filter id="filter1_i_38_87" x="1" y="2.93501" width="5.72998" height="5.80501" filterUnits="userSpaceOnUse" color-interpolation-filters="sRGB">
<feFlood flood-opacity="0" result="BackgroundImageFix"/>
<feBlend mode="normal" in="SourceGraphic" in2="BackgroundImageFix" result="shape"/>
<feColorMatrix in="SourceAlpha" type="matrix" values="0 0 0 0 0 0 0 0 0 0 0 0 0 0 0 0 0 0 127 0" result="hardAlpha"/>
<feOffset dy="-0.075"/>
<feGaussianBlur stdDeviation="0.0375"/>
<feComposite in2="hardAlpha" operator="arithmetic" k2="-1" k3="1"/>
<feColorMatrix type="matrix" values="0 0 0 0 0.720229 0 0 0 0 0.669826 0 0 0 0 0.795833 0 0 0 1 0"/>
<feBlend mode="normal" in2="shape" result="effect1_innerShadow_38_87"/>
</filter>
<filter id="filter2_f_38_87" x="2.65747" y="8.651" width="9.70001" height="6.71301" filterUnits="userSpaceOnUse" color-interpolation-filters="sRGB">
<feFlood flood-opacity="0" result="BackgroundImageFix"/>
<feBlend mode="normal" in="SourceGraphic" in2="BackgroundImageFix" result="shape"/>
<feGaussianBlur stdDeviation="0.25" result="effect1_foregroundBlur_38_87"/>
</filter>
<filter id="filter3_f_38_87" x="2.95825" y="9.12372" width="7.61597" height="5.19998" filterUnits="userSpaceOnUse" color-interpolation-filters="sRGB">
<feFlood flood-opacity="0" result="BackgroundImageFix"/>
<feBlend mode="normal" in="SourceGraphic" in2="BackgroundImageFix" result="shape"/>
<feGaussianBlur stdDeviation="0.25" result="effect1_foregroundBlur_38_87"/>
</filter>
<filter id="filter4_i_38_87" x="11.155" y="5.11499" width="3.84497" height="3.92501" filterUnits="userSpaceOnUse" color-interpolation-filters="sRGB">
<feFlood flood-opacity="0" result="BackgroundImageFix"/>
<feBlend mode="normal" in="SourceGraphic" in2="BackgroundImageFix" result="shape"/>
<feColorMatrix in="SourceAlpha" type="matrix" values="0 0 0 0 0 0 0 0 0 0 0 0 0 0 0 0 0 0 127 0" result="hardAlpha"/>
<feOffset dy="0.075"/>
<feGaussianBlur stdDeviation="0.0625"/>
<feComposite in2="hardAlpha" operator="arithmetic" k2="-1" k3="1"/>
<feColorMatrix type="matrix" values="0 0 0 0 0.701961 0 0 0 0 0.690196 0 0 0 0 0.764706 0 0 0 1 0"/>
<feBlend mode="normal" in2="shape" result="effect1_innerShadow_38_87"/>
</filter>
<filter id="filter5_i_38_87" x="7.20496" y="2.73999" width="6.79498" height="4.75" filterUnits="userSpaceOnUse" color-interpolation-filters="sRGB">
<feFlood flood-opacity="0" result="BackgroundImageFix"/>
<feBlend mode="normal" in="SourceGraphic" in2="BackgroundImageFix" result="shape"/>
<feColorMatrix in="SourceAlpha" type="matrix" values="0 0 0 0 0 0 0 0 0 0 0 0 0 0 0 0 0 0 127 0" result="hardAlpha"/>
<feOffset/>
<feGaussianBlur stdDeviation="0.25"/>
<feComposite in2="hardAlpha" operator="arithmetic" k2="-1" k3="1"/>
<feColorMatrix type="matrix" values="0 0 0 0 0.309804 0 0 0 0 0.654902 0 0 0 0 0.537255 0 0 0 1 0"/>
<feBlend mode="normal" in2="shape" result="effect1_innerShadow_38_87"/>
</filter>
<filter id="filter6_f_38_87" x="7.32098" y="3.035" width="6.56299" height="4.32449" filterUnits="userSpaceOnUse" color-interpolation-filters="sRGB">
<feFlood flood-opacity="0" result="BackgroundImageFix"/>
<feBlend mode="normal" in="SourceGraphic" in2="BackgroundImageFix" result="shape"/>
<feGaussianBlur stdDeviation="0.125" result="effect1_foregroundBlur_38_87"/>
</filter>
<filter id="filter7_f_38_87" x="7.10853" y="3.53898" width="2.37498" height="3.88251" filterUnits="userSpaceOnUse" color-interpolation-filters="sRGB">
<feFlood flood-opacity="0" result="BackgroundImageFix"/>
<feBlend mode="normal" in="SourceGraphic" in2="BackgroundImageFix" result="shape"/>
<feGaussianBlur stdDeviation="0.1" result="effect1_foregroundBlur_38_87"/>
</filter>
<filter id="filter8_f_38_87" x="10.8765" y="3.08901" width="3.13949" height="4.22604" filterUnits="userSpaceOnUse" color-interpolation-filters="sRGB">
<feFlood flood-opacity="0" result="BackgroundImageFix"/>
<feBlend mode="normal" in="SourceGraphic" in2="BackgroundImageFix" result="shape"/>
<feGaussianBlur stdDeviation="0.15" result="effect1_foregroundBlur_38_87"/>
</filter>
<filter id="filter9_f_38_87" x="9.17603" y="1.5625" width="4.8515" height="4.6095" filterUnits="userSpaceOnUse" color-interpolation-filters="sRGB">
<feFlood flood-opacity="0" result="BackgroundImageFix"/>
<feBlend mode="normal" in="SourceGraphic" in2="BackgroundImageFix" result="shape"/>
<feGaussianBlur stdDeviation="0.0625" result="effect1_foregroundBlur_38_87"/>
</filter>
<filter id="filter10_f_38_87" x="13.0201" y="5.2175" width="1.99077" height="3.205" filterUnits="userSpaceOnUse" color-interpolation-filters="sRGB">
<feFlood flood-opacity="0" result="BackgroundImageFix"/>
<feBlend mode="normal" in="SourceGraphic" in2="BackgroundImageFix" result="shape"/>
<feGaussianBlur stdDeviation="0.05" result="effect1_foregroundBlur_38_87"/>
</filter>
<filter id="filter11_f_38_87" x="11.167" y="7.84601" width="2.60747" height="1.08168" filterUnits="userSpaceOnUse" color-interpolation-filters="sRGB">
<feFlood flood-opacity="0" result="BackgroundImageFix"/>
<feBlend mode="normal" in="SourceGraphic" in2="BackgroundImageFix" result="shape"/>
<feGaussianBlur stdDeviation="0.05" result="effect1_foregroundBlur_38_87"/>
</filter>
<filter id="filter12_f_38_87" x="7.93254" y="9.28047" width="4.605" height="6.00854" filterUnits="userSpaceOnUse" color-interpolation-filters="sRGB">
<feFlood flood-opacity="0" result="BackgroundImageFix"/>
<feBlend mode="normal" in="SourceGraphic" in2="BackgroundImageFix" result="shape"/>
<feGaussianBlur stdDeviation="0.15" result="effect1_foregroundBlur_38_87"/>
</filter>
<filter id="filter13_f_38_87" x="2.76501" y="10.326" width="5.065" height="4.90607" filterUnits="userSpaceOnUse" color-interpolation-filters="sRGB">
<feFlood flood-opacity="0" result="BackgroundImageFix"/>
<feBlend mode="normal" in="SourceGraphic" in2="BackgroundImageFix" result="shape"/>
<feGaussianBlur stdDeviation="0.25" result="effect1_foregroundBlur_38_87"/>
</filter>
<filter id="filter14_ii_38_87" x="2.5" y="6.46149" width="7.8323" height="7.41745" filterUnits="userSpaceOnUse" color-interpolation-filters="sRGB">
<feFlood flood-opacity="0" result="BackgroundImageFix"/>
<feBlend mode="normal" in="SourceGraphic" in2="BackgroundImageFix" result="shape"/>
<feColorMatrix in="SourceAlpha" type="matrix" values="0 0 0 0 0 0 0 0 0 0 0 0 0 0 0 0 0 0 127 0" result="hardAlpha"/>
<feOffset dx="0.1" dy="-0.125"/>
<feGaussianBlur stdDeviation="0.125"/>
<feComposite in2="hardAlpha" operator="arithmetic" k2="-1" k3="1"/>
<feColorMatrix type="matrix" values="0 0 0 0 0.109804 0 0 0 0 0.529412 0 0 0 0 0.356863 0 0 0 1 0"/>
<feBlend mode="normal" in2="shape" result="effect1_innerShadow_38_87"/>
<feColorMatrix in="SourceAlpha" type="matrix" values="0 0 0 0 0 0 0 0 0 0 0 0 0 0 0 0 0 0 127 0" result="hardAlpha"/>
<feOffset/>
<feGaussianBlur stdDeviation="0.25"/>
<feComposite in2="hardAlpha" operator="arithmetic" k2="-1" k3="1"/>
<feColorMatrix type="matrix" values="0 0 0 0 0.14902 0 0 0 0 0.670588 0 0 0 0 0.392157 0 0 0 1 0"/>
<feBlend mode="normal" in2="effect1_innerShadow_38_87" result="effect2_innerShadow_38_87"/>
</filter>
<filter id="filter15_f_38_87" x="2.87354" y="6.76151" width="7.41052" height="6.72852" filterUnits="userSpaceOnUse" color-interpolation-filters="sRGB">
<feFlood flood-opacity="0" result="BackgroundImageFix"/>
<feBlend mode="normal" in="SourceGraphic" in2="BackgroundImageFix" result="shape"/>
<feGaussianBlur stdDeviation="0.125" result="effect1_foregroundBlur_38_87"/>
</filter>
<filter id="filter16_f_38_87" x="1.11267" y="4.27551" width="2.11133" height="4.392" filterUnits="userSpaceOnUse" color-interpolation-filters="sRGB">
<feFlood flood-opacity="0" result="BackgroundImageFix"/>
<feBlend mode="normal" in="SourceGraphic" in2="BackgroundImageFix" result="shape"/>
<feGaussianBlur stdDeviation="0.0625" result="effect1_foregroundBlur_38_87"/>
</filter>
<filter id="filter17_f_38_87" x="2.849" y="3.00549" width="3.87653" height="1.64499" filterUnits="userSpaceOnUse" color-interpolation-filters="sRGB">
<feFlood flood-opacity="0" result="BackgroundImageFix"/>
<feBlend mode="normal" in="SourceGraphic" in2="BackgroundImageFix" result="shape"/>
<feGaussianBlur stdDeviation="0.0625" result="effect1_foregroundBlur_38_87"/>
</filter>
<filter id="filter18_f_38_87" x="5.53699" y="1.5307" width="2.96399" height="0.639832" filterUnits="userSpaceOnUse" color-interpolation-filters="sRGB">
<feFlood flood-opacity="0" result="BackgroundImageFix"/>
<feBlend mode="normal" in="SourceGraphic" in2="BackgroundImageFix" result="shape"/>
<feGaussianBlur stdDeviation="0.0625" result="effect1_foregroundBlur_38_87"/>
</filter>
<filter id="filter19_f_38_87" x="1.99597" y="2.01398" width="2.30902" height="1.70352" filterUnits="userSpaceOnUse" color-interpolation-filters="sRGB">
<feFlood flood-opacity="0" result="BackgroundImageFix"/>
<feBlend mode="normal" in="SourceGraphic" in2="BackgroundImageFix" result="shape"/>
<feGaussianBlur stdDeviation="0.0625" result="effect1_foregroundBlur_38_87"/>
</filter>
<radialGradient id="paint0_radial_38_87" cx="0" cy="0" r="1" gradientUnits="userSpaceOnUse" gradientTransform="translate(5.06998 2.33) rotate(-103.627) scale(0.673633 4.48553)">
<stop offset="0.006" stop-color="#CBBDDC"/>
<stop offset="1" stop-color="#D2CCDB"/>
</radialGradient>
<linearGradient id="paint1_linear_38_87" x1="1" y1="7.84401" x2="6.73" y2="3.15651" gradientUnits="userSpaceOnUse">
<stop offset="0.006" stop-color="#CCC3D9"/>
<stop offset="1" stop-color="#CABDDD"/>
</linearGradient>
<linearGradient id="paint2_linear_38_87" x1="6.529" y1="16.0895" x2="8.15" y2="10.516" gradientUnits="userSpaceOnUse">
<stop stop-color="#459589"/>
<stop offset="1" stop-color="#5AB57A"/>
</linearGradient>
<linearGradient id="paint3_linear_38_87" x1="7.814" y1="15.8325" x2="7.814" y2="14.9035" gradientUnits="userSpaceOnUse">
<stop stop-color="#528289"/>
<stop offset="1" stop-color="#528289" stop-opacity="0"/>
</linearGradient>
<linearGradient id="paint4_linear_38_87" x1="3.60397" y1="9.5275" x2="9.97547" y2="14.4115" gradientUnits="userSpaceOnUse">
<stop stop-color="#4BBC85"/>
<stop offset="1" stop-color="#46AF84"/>
</linearGradient>
<linearGradient id="paint5_linear_38_87" x1="5.97552" y1="11.919" x2="6.39102" y2="11.0695" gradientUnits="userSpaceOnUse">
<stop stop-color="#33A171"/>
<stop offset="1" stop-color="#3FB774"/>
</linearGradient>
<linearGradient id="paint6_linear_38_87" x1="11.4505" y1="9.22599" x2="15.166" y2="5.98449" gradientUnits="userSpaceOnUse">
<stop offset="0.006" stop-color="#C2B4D9"/>
<stop offset="1" stop-color="#C8C4D5"/>
</linearGradient>
<linearGradient id="paint7_linear_38_87" x1="7.41446" y1="6.84599" x2="14.513" y2="3.33099" gradientUnits="userSpaceOnUse">
<stop stop-color="#4FC679"/>
<stop offset="1" stop-color="#4DBF82"/>
</linearGradient>
<linearGradient id="paint8_linear_38_87" x1="7.88999" y1="6.577" x2="13.7565" y2="3.6725" gradientUnits="userSpaceOnUse">
<stop stop-color="#4FC886"/>
<stop offset="1" stop-color="#4EBD8E"/>
</linearGradient>
<linearGradient id="paint9_linear_38_87" x1="7.98852" y1="5.3885" x2="7.05702" y2="5.621" gradientUnits="userSpaceOnUse">
<stop offset="0.809" stop-color="#84D59E"/>
<stop offset="1" stop-color="#84D49E" stop-opacity="0"/>
</linearGradient>
<linearGradient id="paint10_linear_38_87" x1="12.203" y1="6.6875" x2="14.198" y2="6.258" gradientUnits="userSpaceOnUse">
<stop stop-color="#63D393" stop-opacity="0"/>
<stop offset="1" stop-color="#63D393"/>
</linearGradient>
<linearGradient id="paint11_linear_38_87" x1="14.444" y1="3.00401" x2="9.41299" y2="5.67451" gradientUnits="userSpaceOnUse">
<stop stop-color="#269D63"/>
<stop offset="1" stop-color="#34C075"/>
</linearGradient>
<radialGradient id="paint12_radial_38_87" cx="0" cy="0" r="1" gradientUnits="userSpaceOnUse" gradientTransform="translate(14 1.69501) rotate(146.724) scale(0.299016 0.305248)">
<stop stop-color="#66B386"/>
<stop offset="1" stop-color="#66B386" stop-opacity="0"/>
</radialGradient>
<radialGradient id="paint13_radial_38_87" cx="0" cy="0" r="1" gradientUnits="userSpaceOnUse" gradientTransform="translate(13.2735 3.08701) rotate(38.6003) scale(0.376192 0.471573)">
<stop stop-color="#60A576"/>
<stop offset="1" stop-color="#60A576" stop-opacity="0"/>
</radialGradient>
<linearGradient id="paint14_linear_38_87" x1="8.20703" y1="6.7805" x2="14.559" y2="7.762" gradientUnits="userSpaceOnUse">
<stop stop-color="#53CD8B"/>
<stop offset="1" stop-color="#5BB180"/>
</linearGradient>
<linearGradient id="paint15_linear_38_87" x1="15.3935" y1="4.64599" x2="13.5555" y2="8.58899" gradientUnits="userSpaceOnUse">
<stop stop-color="#DBD8E4"/>
<stop offset="1" stop-color="#DBD8E4" stop-opacity="0"/>
</linearGradient>
<linearGradient id="paint16_linear_38_87" x1="10.8725" y1="8.905" x2="11.225" y2="8.0835" gradientUnits="userSpaceOnUse">
<stop stop-color="#DBD8E4" stop-opacity="0.5"/>
<stop offset="1" stop-color="#DBD8E4" stop-opacity="0"/>
</linearGradient>
<linearGradient id="paint17_linear_38_87" x1="12.31" y1="14.39" x2="7.92254" y2="9.70551" gradientUnits="userSpaceOnUse">
<stop stop-color="#6CC995"/>
<stop offset="1" stop-color="#6CC995" stop-opacity="0"/>
</linearGradient>
<radialGradient id="paint18_radial_38_87" cx="0" cy="0" r="1" gradientUnits="userSpaceOnUse" gradientTransform="translate(4.71451 13.283) rotate(-50.469) scale(2.63942 2.6067)">
<stop stop-color="#6CC995"/>
<stop offset="1" stop-color="#6CC995" stop-opacity="0"/>
</radialGradient>
<linearGradient id="paint19_linear_38_87" x1="2.932" y1="8.22349" x2="10.4465" y2="13.7945" gradientUnits="userSpaceOnUse">
<stop stop-color="#269C64"/>
<stop offset="1" stop-color="#45C68E"/>
</linearGradient>
<linearGradient id="paint20_linear_38_87" x1="10.221" y1="13.8725" x2="9.138" y2="13.283" gradientUnits="userSpaceOnUse">
<stop stop-color="#32C37E"/>
<stop offset="1" stop-color="#32C37E" stop-opacity="0"/>
</linearGradient>
<radialGradient id="paint21_radial_38_87" cx="0" cy="0" r="1" gradientUnits="userSpaceOnUse" gradientTransform="translate(6.3605 10.585) rotate(120.293) scale(0.331904 2.97142)">
<stop stop-color="#23A965"/>
<stop offset="1" stop-color="#23A965" stop-opacity="0"/>
</radialGradient>
<radialGradient id="paint22_radial_38_87" cx="0" cy="0" r="1" gradientUnits="userSpaceOnUse" gradientTransform="translate(9.969 13.1565) rotate(-177.337) scale(0.336298 0.35637)">
<stop stop-color="#65D69C"/>
<stop offset="1" stop-color="#65D69C" stop-opacity="0"/>
</radialGradient>
<radialGradient id="paint23_radial_38_87" cx="0" cy="0" r="1" gradientUnits="userSpaceOnUse" gradientTransform="translate(3.50504 9.40901) rotate(-35.2867) scale(1.57384 1.24796)">
<stop stop-color="#62B78C"/>
<stop offset="1" stop-color="#62B78C" stop-opacity="0"/>
</radialGradient>
<linearGradient id="paint24_linear_38_87" x1="9.77054" y1="12.947" x2="3.52504" y2="9.508" gradientUnits="userSpaceOnUse">
<stop stop-color="#69D79E"/>
<stop offset="1" stop-color="#69D79E" stop-opacity="0"/>
</linearGradient>
<linearGradient id="paint25_linear_38_87" x1="5.34354" y1="6.78051" x2="3.56454" y2="9.19201" gradientUnits="userSpaceOnUse">
<stop stop-color="#69D79E"/>
<stop offset="1" stop-color="#69D79E" stop-opacity="0"/>
</linearGradient>
<linearGradient id="paint26_linear_38_87" x1="1.19151" y1="8.42051" x2="3.37351" y2="4.57201" gradientUnits="userSpaceOnUse">
<stop stop-color="#DCD2EA"/>
<stop offset="1" stop-color="#DCD2EA" stop-opacity="0"/>
</linearGradient>
<linearGradient id="paint27_linear_38_87" x1="6.647" y1="3.35199" x2="3.81" y2="4.34399" gradientUnits="userSpaceOnUse">
<stop stop-color="#DCD2EA"/>
<stop offset="1" stop-color="#DCD2EA" stop-opacity="0"/>
</linearGradient>
<linearGradient id="paint28_linear_38_87" x1="8.39399" y1="1.75151" x2="7.46549" y2="2.90151" gradientUnits="userSpaceOnUse">
<stop stop-color="#E2D9F0" stop-opacity="0.6"/>
<stop offset="1" stop-color="#DCD2EA" stop-opacity="0"/>
</linearGradient>
<linearGradient id="paint29_linear_38_87" x1="1.95497" y1="3.53051" x2="4.36147" y2="3.16701" gradientUnits="userSpaceOnUse">
<stop stop-color="#E2D9F0" stop-opacity="0.6"/>
<stop offset="1" stop-color="#DCD2EA" stop-opacity="0"/>
</linearGradient>
</defs>
</svg>
