<svg width="64" height="64" viewBox="0 0 64 64" fill="none" xmlns="http://www.w3.org/2000/svg">
<path d="M20.6501 9.78002C22.8821 7.26802 25.9181 7.66802 27.8601 9.78002L29.0441 11.152C29.2464 11.3719 29.4962 11.5425 29.7746 11.651C30.0529 11.7595 30.3524 11.803 30.6501 11.778L32.7561 11.152C35.6261 10.536 38.2341 12.678 38.2341 16.002V17.256C38.2941 17.938 38.8921 18.402 39.5081 18.704L41.4101 19.498C44.1621 20.842 44.8501 24.03 42.8461 26.708L42.2761 27.458C41.7661 28.15 41.8701 29.056 42.3781 29.748L42.9481 30.546C45.0221 33.096 43.8521 36.596 40.9241 37.818L39.2881 38.502C38.6701 38.76 38.4281 39.202 38.3141 39.862L38.2001 42C38.1303 42.5975 37.9422 43.1751 37.647 43.6992C37.3517 44.2233 36.9551 44.6834 36.4802 45.0527C36.0054 45.422 35.4618 45.6931 34.8811 45.8503C34.3005 46.0074 33.6944 46.0474 33.0981 45.968L30.6041 45.302C30.0041 45.218 29.2601 45.416 28.8621 46.042L27.9621 47.272C25.7301 49.788 22.7161 49.372 21.1981 47.898L19.5381 45.888C19.1021 45.468 18.5561 45.108 17.8981 45.356L15.3901 46.042C13.3161 46.336 10.8761 44.742 10.4861 42.686L10.1961 39.71C10.1379 39.4048 10.008 39.1178 9.81713 38.8726C9.62622 38.6274 9.37976 38.4312 9.09808 38.3L7.33808 37.694C4.69008 36.46 3.80408 33.474 5.32408 30.98L6.31608 29.606C6.51144 29.2857 6.61076 28.9161 6.60226 28.541C6.59375 28.1659 6.47776 27.8011 6.26808 27.49L5.52808 26.444C3.43208 23.46 4.88008 20.124 7.98608 19.124L8.67008 18.904C9.42608 18.66 10.1561 18.034 10.2201 17.242L10.3721 15.322C10.6201 12.202 13.4661 10.412 16.4581 11.322L17.4281 11.616C18.3621 11.98 19.0941 11.67 19.6021 11.116L20.6501 9.78002Z" fill="url(#paint0_linear_38_241)"/>
<path d="M20.6501 9.78002C22.8821 7.26802 25.9181 7.66802 27.8601 9.78002L29.0441 11.152C29.2464 11.3719 29.4962 11.5425 29.7746 11.651C30.0529 11.7595 30.3524 11.803 30.6501 11.778L32.7561 11.152C35.6261 10.536 38.2341 12.678 38.2341 16.002V17.256C38.2941 17.938 38.8921 18.402 39.5081 18.704L41.4101 19.498C44.1621 20.842 44.8501 24.03 42.8461 26.708L42.2761 27.458C41.7661 28.15 41.8701 29.056 42.3781 29.748L42.9481 30.546C45.0221 33.096 43.8521 36.596 40.9241 37.818L39.2881 38.502C38.6701 38.76 38.4281 39.202 38.3141 39.862L38.2001 42C38.1303 42.5975 37.9422 43.1751 37.647 43.6992C37.3517 44.2233 36.9551 44.6834 36.4802 45.0527C36.0054 45.422 35.4618 45.6931 34.8811 45.8503C34.3005 46.0074 33.6944 46.0474 33.0981 45.968L30.6041 45.302C30.0041 45.218 29.2601 45.416 28.8621 46.042L27.9621 47.272C25.7301 49.788 22.7161 49.372 21.1981 47.898L19.5381 45.888C19.1021 45.468 18.5561 45.108 17.8981 45.356L15.3901 46.042C13.3161 46.336 10.8761 44.742 10.4861 42.686L10.1961 39.71C10.1379 39.4048 10.008 39.1178 9.81713 38.8726C9.62622 38.6274 9.37976 38.4312 9.09808 38.3L7.33808 37.694C4.69008 36.46 3.80408 33.474 5.32408 30.98L6.31608 29.606C6.51144 29.2857 6.61076 28.9161 6.60226 28.541C6.59375 28.1659 6.47776 27.8011 6.26808 27.49L5.52808 26.444C3.43208 23.46 4.88008 20.124 7.98608 19.124L8.67008 18.904C9.42608 18.66 10.1561 18.034 10.2201 17.242L10.3721 15.322C10.6201 12.202 13.4661 10.412 16.4581 11.322L17.4281 11.616C18.3621 11.98 19.0941 11.67 19.6021 11.116L20.6501 9.78002Z" fill="url(#paint1_radial_38_241)"/>
<path d="M20.6501 9.78002C22.8821 7.26802 25.9181 7.66802 27.8601 9.78002L29.0441 11.152C29.2464 11.3719 29.4962 11.5425 29.7746 11.651C30.0529 11.7595 30.3524 11.803 30.6501 11.778L32.7561 11.152C35.6261 10.536 38.2341 12.678 38.2341 16.002V17.256C38.2941 17.938 38.8921 18.402 39.5081 18.704L41.4101 19.498C44.1621 20.842 44.8501 24.03 42.8461 26.708L42.2761 27.458C41.7661 28.15 41.8701 29.056 42.3781 29.748L42.9481 30.546C45.0221 33.096 43.8521 36.596 40.9241 37.818L39.2881 38.502C38.6701 38.76 38.4281 39.202 38.3141 39.862L38.2001 42C38.1303 42.5975 37.9422 43.1751 37.647 43.6992C37.3517 44.2233 36.9551 44.6834 36.4802 45.0527C36.0054 45.422 35.4618 45.6931 34.8811 45.8503C34.3005 46.0074 33.6944 46.0474 33.0981 45.968L30.6041 45.302C30.0041 45.218 29.2601 45.416 28.8621 46.042L27.9621 47.272C25.7301 49.788 22.7161 49.372 21.1981 47.898L19.5381 45.888C19.1021 45.468 18.5561 45.108 17.8981 45.356L15.3901 46.042C13.3161 46.336 10.8761 44.742 10.4861 42.686L10.1961 39.71C10.1379 39.4048 10.008 39.1178 9.81713 38.8726C9.62622 38.6274 9.37976 38.4312 9.09808 38.3L7.33808 37.694C4.69008 36.46 3.80408 33.474 5.32408 30.98L6.31608 29.606C6.51144 29.2857 6.61076 28.9161 6.60226 28.541C6.59375 28.1659 6.47776 27.8011 6.26808 27.49L5.52808 26.444C3.43208 23.46 4.88008 20.124 7.98608 19.124L8.67008 18.904C9.42608 18.66 10.1561 18.034 10.2201 17.242L10.3721 15.322C10.6201 12.202 13.4661 10.412 16.4581 11.322L17.4281 11.616C18.3621 11.98 19.0941 11.67 19.6021 11.116L20.6501 9.78002Z" fill="url(#paint2_radial_38_241)"/>
<path d="M20.6501 9.78002C22.8821 7.26802 25.9181 7.66802 27.8601 9.78002L29.0441 11.152C29.2464 11.3719 29.4962 11.5425 29.7746 11.651C30.0529 11.7595 30.3524 11.803 30.6501 11.778L32.7561 11.152C35.6261 10.536 38.2341 12.678 38.2341 16.002V17.256C38.2941 17.938 38.8921 18.402 39.5081 18.704L41.4101 19.498C44.1621 20.842 44.8501 24.03 42.8461 26.708L42.2761 27.458C41.7661 28.15 41.8701 29.056 42.3781 29.748L42.9481 30.546C45.0221 33.096 43.8521 36.596 40.9241 37.818L39.2881 38.502C38.6701 38.76 38.4281 39.202 38.3141 39.862L38.2001 42C38.1303 42.5975 37.9422 43.1751 37.647 43.6992C37.3517 44.2233 36.9551 44.6834 36.4802 45.0527C36.0054 45.422 35.4618 45.6931 34.8811 45.8503C34.3005 46.0074 33.6944 46.0474 33.0981 45.968L30.6041 45.302C30.0041 45.218 29.2601 45.416 28.8621 46.042L27.9621 47.272C25.7301 49.788 22.7161 49.372 21.1981 47.898L19.5381 45.888C19.1021 45.468 18.5561 45.108 17.8981 45.356L15.3901 46.042C13.3161 46.336 10.8761 44.742 10.4861 42.686L10.1961 39.71C10.1379 39.4048 10.008 39.1178 9.81713 38.8726C9.62622 38.6274 9.37976 38.4312 9.09808 38.3L7.33808 37.694C4.69008 36.46 3.80408 33.474 5.32408 30.98L6.31608 29.606C6.51144 29.2857 6.61076 28.9161 6.60226 28.541C6.59375 28.1659 6.47776 27.8011 6.26808 27.49L5.52808 26.444C3.43208 23.46 4.88008 20.124 7.98608 19.124L8.67008 18.904C9.42608 18.66 10.1561 18.034 10.2201 17.242L10.3721 15.322C10.6201 12.202 13.4661 10.412 16.4581 11.322L17.4281 11.616C18.3621 11.98 19.0941 11.67 19.6021 11.116L20.6501 9.78002Z" fill="url(#paint3_radial_38_241)"/>
<path d="M20.6501 9.78002C22.8821 7.26802 25.9181 7.66802 27.8601 9.78002L29.0441 11.152C29.2464 11.3719 29.4962 11.5425 29.7746 11.651C30.0529 11.7595 30.3524 11.803 30.6501 11.778L32.7561 11.152C35.6261 10.536 38.2341 12.678 38.2341 16.002V17.256C38.2941 17.938 38.8921 18.402 39.5081 18.704L41.4101 19.498C44.1621 20.842 44.8501 24.03 42.8461 26.708L42.2761 27.458C41.7661 28.15 41.8701 29.056 42.3781 29.748L42.9481 30.546C45.0221 33.096 43.8521 36.596 40.9241 37.818L39.2881 38.502C38.6701 38.76 38.4281 39.202 38.3141 39.862L38.2001 42C38.1303 42.5975 37.9422 43.1751 37.647 43.6992C37.3517 44.2233 36.9551 44.6834 36.4802 45.0527C36.0054 45.422 35.4618 45.6931 34.8811 45.8503C34.3005 46.0074 33.6944 46.0474 33.0981 45.968L30.6041 45.302C30.0041 45.218 29.2601 45.416 28.8621 46.042L27.9621 47.272C25.7301 49.788 22.7161 49.372 21.1981 47.898L19.5381 45.888C19.1021 45.468 18.5561 45.108 17.8981 45.356L15.3901 46.042C13.3161 46.336 10.8761 44.742 10.4861 42.686L10.1961 39.71C10.1379 39.4048 10.008 39.1178 9.81713 38.8726C9.62622 38.6274 9.37976 38.4312 9.09808 38.3L7.33808 37.694C4.69008 36.46 3.80408 33.474 5.32408 30.98L6.31608 29.606C6.51144 29.2857 6.61076 28.9161 6.60226 28.541C6.59375 28.1659 6.47776 27.8011 6.26808 27.49L5.52808 26.444C3.43208 23.46 4.88008 20.124 7.98608 19.124L8.67008 18.904C9.42608 18.66 10.1561 18.034 10.2201 17.242L10.3721 15.322C10.6201 12.202 13.4661 10.412 16.4581 11.322L17.4281 11.616C18.3621 11.98 19.0941 11.67 19.6021 11.116L20.6501 9.78002Z" fill="url(#paint4_radial_38_241)"/>
<path d="M20.6501 9.78002C22.8821 7.26802 25.9181 7.66802 27.8601 9.78002L29.0441 11.152C29.2464 11.3719 29.4962 11.5425 29.7746 11.651C30.0529 11.7595 30.3524 11.803 30.6501 11.778L32.7561 11.152C35.6261 10.536 38.2341 12.678 38.2341 16.002V17.256C38.2941 17.938 38.8921 18.402 39.5081 18.704L41.4101 19.498C44.1621 20.842 44.8501 24.03 42.8461 26.708L42.2761 27.458C41.7661 28.15 41.8701 29.056 42.3781 29.748L42.9481 30.546C45.0221 33.096 43.8521 36.596 40.9241 37.818L39.2881 38.502C38.6701 38.76 38.4281 39.202 38.3141 39.862L38.2001 42C38.1303 42.5975 37.9422 43.1751 37.647 43.6992C37.3517 44.2233 36.9551 44.6834 36.4802 45.0527C36.0054 45.422 35.4618 45.6931 34.8811 45.8503C34.3005 46.0074 33.6944 46.0474 33.0981 45.968L30.6041 45.302C30.0041 45.218 29.2601 45.416 28.8621 46.042L27.9621 47.272C25.7301 49.788 22.7161 49.372 21.1981 47.898L19.5381 45.888C19.1021 45.468 18.5561 45.108 17.8981 45.356L15.3901 46.042C13.3161 46.336 10.8761 44.742 10.4861 42.686L10.1961 39.71C10.1379 39.4048 10.008 39.1178 9.81713 38.8726C9.62622 38.6274 9.37976 38.4312 9.09808 38.3L7.33808 37.694C4.69008 36.46 3.80408 33.474 5.32408 30.98L6.31608 29.606C6.51144 29.2857 6.61076 28.9161 6.60226 28.541C6.59375 28.1659 6.47776 27.8011 6.26808 27.49L5.52808 26.444C3.43208 23.46 4.88008 20.124 7.98608 19.124L8.67008 18.904C9.42608 18.66 10.1561 18.034 10.2201 17.242L10.3721 15.322C10.6201 12.202 13.4661 10.412 16.4581 11.322L17.4281 11.616C18.3621 11.98 19.0941 11.67 19.6021 11.116L20.6501 9.78002Z" fill="url(#paint5_radial_38_241)"/>
<path d="M20.6501 9.78002C22.8821 7.26802 25.9181 7.66802 27.8601 9.78002L29.0441 11.152C29.2464 11.3719 29.4962 11.5425 29.7746 11.651C30.0529 11.7595 30.3524 11.803 30.6501 11.778L32.7561 11.152C35.6261 10.536 38.2341 12.678 38.2341 16.002V17.256C38.2941 17.938 38.8921 18.402 39.5081 18.704L41.4101 19.498C44.1621 20.842 44.8501 24.03 42.8461 26.708L42.2761 27.458C41.7661 28.15 41.8701 29.056 42.3781 29.748L42.9481 30.546C45.0221 33.096 43.8521 36.596 40.9241 37.818L39.2881 38.502C38.6701 38.76 38.4281 39.202 38.3141 39.862L38.2001 42C38.1303 42.5975 37.9422 43.1751 37.647 43.6992C37.3517 44.2233 36.9551 44.6834 36.4802 45.0527C36.0054 45.422 35.4618 45.6931 34.8811 45.8503C34.3005 46.0074 33.6944 46.0474 33.0981 45.968L30.6041 45.302C30.0041 45.218 29.2601 45.416 28.8621 46.042L27.9621 47.272C25.7301 49.788 22.7161 49.372 21.1981 47.898L19.5381 45.888C19.1021 45.468 18.5561 45.108 17.8981 45.356L15.3901 46.042C13.3161 46.336 10.8761 44.742 10.4861 42.686L10.1961 39.71C10.1379 39.4048 10.008 39.1178 9.81713 38.8726C9.62622 38.6274 9.37976 38.4312 9.09808 38.3L7.33808 37.694C4.69008 36.46 3.80408 33.474 5.32408 30.98L6.31608 29.606C6.51144 29.2857 6.61076 28.9161 6.60226 28.541C6.59375 28.1659 6.47776 27.8011 6.26808 27.49L5.52808 26.444C3.43208 23.46 4.88008 20.124 7.98608 19.124L8.67008 18.904C9.42608 18.66 10.1561 18.034 10.2201 17.242L10.3721 15.322C10.6201 12.202 13.4661 10.412 16.4581 11.322L17.4281 11.616C18.3621 11.98 19.0941 11.67 19.6021 11.116L20.6501 9.78002Z" fill="url(#paint6_radial_38_241)"/>
<path d="M20.6501 9.78002C22.8821 7.26802 25.9181 7.66802 27.8601 9.78002L29.0441 11.152C29.2464 11.3719 29.4962 11.5425 29.7746 11.651C30.0529 11.7595 30.3524 11.803 30.6501 11.778L32.7561 11.152C35.6261 10.536 38.2341 12.678 38.2341 16.002V17.256C38.2941 17.938 38.8921 18.402 39.5081 18.704L41.4101 19.498C44.1621 20.842 44.8501 24.03 42.8461 26.708L42.2761 27.458C41.7661 28.15 41.8701 29.056 42.3781 29.748L42.9481 30.546C45.0221 33.096 43.8521 36.596 40.9241 37.818L39.2881 38.502C38.6701 38.76 38.4281 39.202 38.3141 39.862L38.2001 42C38.1303 42.5975 37.9422 43.1751 37.647 43.6992C37.3517 44.2233 36.9551 44.6834 36.4802 45.0527C36.0054 45.422 35.4618 45.6931 34.8811 45.8503C34.3005 46.0074 33.6944 46.0474 33.0981 45.968L30.6041 45.302C30.0041 45.218 29.2601 45.416 28.8621 46.042L27.9621 47.272C25.7301 49.788 22.7161 49.372 21.1981 47.898L19.5381 45.888C19.1021 45.468 18.5561 45.108 17.8981 45.356L15.3901 46.042C13.3161 46.336 10.8761 44.742 10.4861 42.686L10.1961 39.71C10.1379 39.4048 10.008 39.1178 9.81713 38.8726C9.62622 38.6274 9.37976 38.4312 9.09808 38.3L7.33808 37.694C4.69008 36.46 3.80408 33.474 5.32408 30.98L6.31608 29.606C6.51144 29.2857 6.61076 28.9161 6.60226 28.541C6.59375 28.1659 6.47776 27.8011 6.26808 27.49L5.52808 26.444C3.43208 23.46 4.88008 20.124 7.98608 19.124L8.67008 18.904C9.42608 18.66 10.1561 18.034 10.2201 17.242L10.3721 15.322C10.6201 12.202 13.4661 10.412 16.4581 11.322L17.4281 11.616C18.3621 11.98 19.0941 11.67 19.6021 11.116L20.6501 9.78002Z" fill="url(#paint7_radial_38_241)"/>
<path d="M20.6501 9.78002C22.8821 7.26802 25.9181 7.66802 27.8601 9.78002L29.0441 11.152C29.2464 11.3719 29.4962 11.5425 29.7746 11.651C30.0529 11.7595 30.3524 11.803 30.6501 11.778L32.7561 11.152C35.6261 10.536 38.2341 12.678 38.2341 16.002V17.256C38.2941 17.938 38.8921 18.402 39.5081 18.704L41.4101 19.498C44.1621 20.842 44.8501 24.03 42.8461 26.708L42.2761 27.458C41.7661 28.15 41.8701 29.056 42.3781 29.748L42.9481 30.546C45.0221 33.096 43.8521 36.596 40.9241 37.818L39.2881 38.502C38.6701 38.76 38.4281 39.202 38.3141 39.862L38.2001 42C38.1303 42.5975 37.9422 43.1751 37.647 43.6992C37.3517 44.2233 36.9551 44.6834 36.4802 45.0527C36.0054 45.422 35.4618 45.6931 34.8811 45.8503C34.3005 46.0074 33.6944 46.0474 33.0981 45.968L30.6041 45.302C30.0041 45.218 29.2601 45.416 28.8621 46.042L27.9621 47.272C25.7301 49.788 22.7161 49.372 21.1981 47.898L19.5381 45.888C19.1021 45.468 18.5561 45.108 17.8981 45.356L15.3901 46.042C13.3161 46.336 10.8761 44.742 10.4861 42.686L10.1961 39.71C10.1379 39.4048 10.008 39.1178 9.81713 38.8726C9.62622 38.6274 9.37976 38.4312 9.09808 38.3L7.33808 37.694C4.69008 36.46 3.80408 33.474 5.32408 30.98L6.31608 29.606C6.51144 29.2857 6.61076 28.9161 6.60226 28.541C6.59375 28.1659 6.47776 27.8011 6.26808 27.49L5.52808 26.444C3.43208 23.46 4.88008 20.124 7.98608 19.124L8.67008 18.904C9.42608 18.66 10.1561 18.034 10.2201 17.242L10.3721 15.322C10.6201 12.202 13.4661 10.412 16.4581 11.322L17.4281 11.616C18.3621 11.98 19.0941 11.67 19.6021 11.116L20.6501 9.78002Z" fill="url(#paint8_radial_38_241)"/>
<path d="M20.6501 9.78002C22.8821 7.26802 25.9181 7.66802 27.8601 9.78002L29.0441 11.152C29.2464 11.3719 29.4962 11.5425 29.7746 11.651C30.0529 11.7595 30.3524 11.803 30.6501 11.778L32.7561 11.152C35.6261 10.536 38.2341 12.678 38.2341 16.002V17.256C38.2941 17.938 38.8921 18.402 39.5081 18.704L41.4101 19.498C44.1621 20.842 44.8501 24.03 42.8461 26.708L42.2761 27.458C41.7661 28.15 41.8701 29.056 42.3781 29.748L42.9481 30.546C45.0221 33.096 43.8521 36.596 40.9241 37.818L39.2881 38.502C38.6701 38.76 38.4281 39.202 38.3141 39.862L38.2001 42C38.1303 42.5975 37.9422 43.1751 37.647 43.6992C37.3517 44.2233 36.9551 44.6834 36.4802 45.0527C36.0054 45.422 35.4618 45.6931 34.8811 45.8503C34.3005 46.0074 33.6944 46.0474 33.0981 45.968L30.6041 45.302C30.0041 45.218 29.2601 45.416 28.8621 46.042L27.9621 47.272C25.7301 49.788 22.7161 49.372 21.1981 47.898L19.5381 45.888C19.1021 45.468 18.5561 45.108 17.8981 45.356L15.3901 46.042C13.3161 46.336 10.8761 44.742 10.4861 42.686L10.1961 39.71C10.1379 39.4048 10.008 39.1178 9.81713 38.8726C9.62622 38.6274 9.37976 38.4312 9.09808 38.3L7.33808 37.694C4.69008 36.46 3.80408 33.474 5.32408 30.98L6.31608 29.606C6.51144 29.2857 6.61076 28.9161 6.60226 28.541C6.59375 28.1659 6.47776 27.8011 6.26808 27.49L5.52808 26.444C3.43208 23.46 4.88008 20.124 7.98608 19.124L8.67008 18.904C9.42608 18.66 10.1561 18.034 10.2201 17.242L10.3721 15.322C10.6201 12.202 13.4661 10.412 16.4581 11.322L17.4281 11.616C18.3621 11.98 19.0941 11.67 19.6021 11.116L20.6501 9.78002Z" fill="url(#paint9_radial_38_241)"/>
<g filter="url(#filter0_d_38_241)">
<path d="M24.2721 44.186C28.4254 44.186 32.4085 42.5361 35.3454 39.5993C38.2822 36.6625 39.9321 32.6793 39.9321 28.526C39.9321 24.3727 38.2822 20.3896 35.3454 17.4527C32.4085 14.5159 28.4254 12.866 24.2721 12.866C20.1188 12.866 16.1356 14.5159 13.1988 17.4527C10.2619 20.3896 8.61206 24.3727 8.61206 28.526C8.61206 32.6793 10.2619 36.6625 13.1988 39.5993C16.1356 42.5361 20.1188 44.186 24.2721 44.186Z" fill="url(#paint10_radial_38_241)"/>
<path d="M24.2721 44.186C28.4254 44.186 32.4085 42.5361 35.3454 39.5993C38.2822 36.6625 39.9321 32.6793 39.9321 28.526C39.9321 24.3727 38.2822 20.3896 35.3454 17.4527C32.4085 14.5159 28.4254 12.866 24.2721 12.866C20.1188 12.866 16.1356 14.5159 13.1988 17.4527C10.2619 20.3896 8.61206 24.3727 8.61206 28.526C8.61206 32.6793 10.2619 36.6625 13.1988 39.5993C16.1356 42.5361 20.1188 44.186 24.2721 44.186Z" fill="url(#paint11_radial_38_241)"/>
<path d="M24.2721 44.186C28.4254 44.186 32.4085 42.5361 35.3454 39.5993C38.2822 36.6625 39.9321 32.6793 39.9321 28.526C39.9321 24.3727 38.2822 20.3896 35.3454 17.4527C32.4085 14.5159 28.4254 12.866 24.2721 12.866C20.1188 12.866 16.1356 14.5159 13.1988 17.4527C10.2619 20.3896 8.61206 24.3727 8.61206 28.526C8.61206 32.6793 10.2619 36.6625 13.1988 39.5993C16.1356 42.5361 20.1188 44.186 24.2721 44.186Z" fill="url(#paint12_radial_38_241)"/>
</g>
<path d="M24.5199 45.36C25.581 45.36 26.6317 45.151 27.612 44.745C28.5923 44.3389 29.4831 43.7437 30.2334 42.9934C30.9837 42.2431 31.5788 41.3524 31.9849 40.3721C32.3909 39.3918 32.5999 38.3411 32.5999 37.28C32.5999 36.2189 32.3909 35.1682 31.9849 34.1879C31.5788 33.2076 30.9837 32.3169 30.2334 31.5666C29.4831 30.8163 28.5923 30.2211 27.612 29.8151C26.6317 29.409 25.581 29.2 24.5199 29.2C22.377 29.2 20.3218 30.0513 18.8065 31.5666C17.2912 33.0819 16.4399 35.1371 16.4399 37.28C16.4399 39.423 17.2912 41.4781 18.8065 42.9934C20.3218 44.5087 22.377 45.36 24.5199 45.36Z" fill="url(#paint13_radial_38_241)"/>
<path d="M24.5199 45.36C25.581 45.36 26.6317 45.151 27.612 44.745C28.5923 44.3389 29.4831 43.7437 30.2334 42.9934C30.9837 42.2431 31.5788 41.3524 31.9849 40.3721C32.3909 39.3918 32.5999 38.3411 32.5999 37.28C32.5999 36.2189 32.3909 35.1682 31.9849 34.1879C31.5788 33.2076 30.9837 32.3169 30.2334 31.5666C29.4831 30.8163 28.5923 30.2211 27.612 29.8151C26.6317 29.409 25.581 29.2 24.5199 29.2C22.377 29.2 20.3218 30.0513 18.8065 31.5666C17.2912 33.0819 16.4399 35.1371 16.4399 37.28C16.4399 39.423 17.2912 41.4781 18.8065 42.9934C20.3218 44.5087 22.377 45.36 24.5199 45.36Z" fill="url(#paint14_radial_38_241)"/>
<g filter="url(#filter1_i_38_241)">
<path d="M54.48 29.18C47.38 22.26 36.02 22.38 29.1 29.48C27.3152 31.3024 25.9405 33.4851 25.068 35.882C25.0398 35.9576 24.995 36.0259 24.9368 36.0818C24.8785 36.1376 24.8085 36.1796 24.7317 36.2046C24.655 36.2296 24.5737 36.237 24.4937 36.2261C24.4138 36.2153 24.3373 36.1865 24.27 36.142C23.6479 35.7274 22.9883 35.3719 22.3 35.08C20.3323 34.1771 18.1692 33.7833 16.0096 33.935C13.8499 34.0866 11.7631 34.7787 9.94087 35.9477C8.11865 37.1167 6.61958 38.7251 5.58147 40.6249C4.54336 42.5247 3.99953 44.6551 4 46.82C4 49.86 5.06 52.66 6.82 54.88C8.031 56.4741 9.59481 57.7659 11.3888 58.6542C13.1828 59.5425 15.1581 60.0032 17.16 60H42.54C48.18 60 53.16 57.22 56.2 52.96C61.64 45.84 61.04 35.6 54.48 29.18Z" fill="#E0D3FF"/>
</g>
<g filter="url(#filter2_ii_38_241)">
<path d="M54.48 29.18C47.38 22.26 36.02 22.38 29.1 29.48C27.3152 31.3024 25.9405 33.4851 25.068 35.882C25.0398 35.9576 24.995 36.0259 24.9368 36.0818C24.8785 36.1376 24.8085 36.1796 24.7317 36.2046C24.655 36.2296 24.5737 36.237 24.4937 36.2261C24.4138 36.2153 24.3373 36.1865 24.27 36.142C23.6479 35.7274 22.9883 35.3719 22.3 35.08C20.3323 34.1771 18.1692 33.7833 16.0096 33.935C13.8499 34.0866 11.7631 34.7787 9.94087 35.9477C8.11865 37.1167 6.61958 38.7251 5.58147 40.6249C4.54336 42.5247 3.99953 44.6551 4 46.82C4 49.86 5.06 52.66 6.82 54.88C8.031 56.4741 9.59481 57.7659 11.3888 58.6542C13.1828 59.5425 15.1581 60.0032 17.16 60H42.54C48.18 60 53.16 57.22 56.2 52.96C61.64 45.84 61.04 35.6 54.48 29.18Z" fill="#E0D3FF"/>
<path d="M54.48 29.18C47.38 22.26 36.02 22.38 29.1 29.48C27.3152 31.3024 25.9405 33.4851 25.068 35.882C25.0398 35.9576 24.995 36.0259 24.9368 36.0818C24.8785 36.1376 24.8085 36.1796 24.7317 36.2046C24.655 36.2296 24.5737 36.237 24.4937 36.2261C24.4138 36.2153 24.3373 36.1865 24.27 36.142C23.6479 35.7274 22.9883 35.3719 22.3 35.08C20.3323 34.1771 18.1692 33.7833 16.0096 33.935C13.8499 34.0866 11.7631 34.7787 9.94087 35.9477C8.11865 37.1167 6.61958 38.7251 5.58147 40.6249C4.54336 42.5247 3.99953 44.6551 4 46.82C4 49.86 5.06 52.66 6.82 54.88C8.031 56.4741 9.59481 57.7659 11.3888 58.6542C13.1828 59.5425 15.1581 60.0032 17.16 60H42.54C48.18 60 53.16 57.22 56.2 52.96C61.64 45.84 61.04 35.6 54.48 29.18Z" fill="url(#paint15_radial_38_241)"/>
<path d="M54.48 29.18C47.38 22.26 36.02 22.38 29.1 29.48C27.3152 31.3024 25.9405 33.4851 25.068 35.882C25.0398 35.9576 24.995 36.0259 24.9368 36.0818C24.8785 36.1376 24.8085 36.1796 24.7317 36.2046C24.655 36.2296 24.5737 36.237 24.4937 36.2261C24.4138 36.2153 24.3373 36.1865 24.27 36.142C23.6479 35.7274 22.9883 35.3719 22.3 35.08C20.3323 34.1771 18.1692 33.7833 16.0096 33.935C13.8499 34.0866 11.7631 34.7787 9.94087 35.9477C8.11865 37.1167 6.61958 38.7251 5.58147 40.6249C4.54336 42.5247 3.99953 44.6551 4 46.82C4 49.86 5.06 52.66 6.82 54.88C8.031 56.4741 9.59481 57.7659 11.3888 58.6542C13.1828 59.5425 15.1581 60.0032 17.16 60H42.54C48.18 60 53.16 57.22 56.2 52.96C61.64 45.84 61.04 35.6 54.48 29.18Z" fill="url(#paint16_radial_38_241)"/>
<path d="M54.48 29.18C47.38 22.26 36.02 22.38 29.1 29.48C27.3152 31.3024 25.9405 33.4851 25.068 35.882C25.0398 35.9576 24.995 36.0259 24.9368 36.0818C24.8785 36.1376 24.8085 36.1796 24.7317 36.2046C24.655 36.2296 24.5737 36.237 24.4937 36.2261C24.4138 36.2153 24.3373 36.1865 24.27 36.142C23.6479 35.7274 22.9883 35.3719 22.3 35.08C20.3323 34.1771 18.1692 33.7833 16.0096 33.935C13.8499 34.0866 11.7631 34.7787 9.94087 35.9477C8.11865 37.1167 6.61958 38.7251 5.58147 40.6249C4.54336 42.5247 3.99953 44.6551 4 46.82C4 49.86 5.06 52.66 6.82 54.88C8.031 56.4741 9.59481 57.7659 11.3888 58.6542C13.1828 59.5425 15.1581 60.0032 17.16 60H42.54C48.18 60 53.16 57.22 56.2 52.96C61.64 45.84 61.04 35.6 54.48 29.18Z" fill="url(#paint17_radial_38_241)"/>
<path d="M54.48 29.18C47.38 22.26 36.02 22.38 29.1 29.48C27.3152 31.3024 25.9405 33.4851 25.068 35.882C25.0398 35.9576 24.995 36.0259 24.9368 36.0818C24.8785 36.1376 24.8085 36.1796 24.7317 36.2046C24.655 36.2296 24.5737 36.237 24.4937 36.2261C24.4138 36.2153 24.3373 36.1865 24.27 36.142C23.6479 35.7274 22.9883 35.3719 22.3 35.08C20.3323 34.1771 18.1692 33.7833 16.0096 33.935C13.8499 34.0866 11.7631 34.7787 9.94087 35.9477C8.11865 37.1167 6.61958 38.7251 5.58147 40.6249C4.54336 42.5247 3.99953 44.6551 4 46.82C4 49.86 5.06 52.66 6.82 54.88C8.031 56.4741 9.59481 57.7659 11.3888 58.6542C13.1828 59.5425 15.1581 60.0032 17.16 60H42.54C48.18 60 53.16 57.22 56.2 52.96C61.64 45.84 61.04 35.6 54.48 29.18Z" fill="url(#paint18_radial_38_241)"/>
</g>
<defs>
<filter id="filter0_d_38_241" x="7.41206" y="12.866" width="32.52" height="32.52" filterUnits="userSpaceOnUse" color-interpolation-filters="sRGB">
<feFlood flood-opacity="0" result="BackgroundImageFix"/>
<feColorMatrix in="SourceAlpha" type="matrix" values="0 0 0 0 0 0 0 0 0 0 0 0 0 0 0 0 0 0 127 0" result="hardAlpha"/>
<feOffset dx="-0.6" dy="0.6"/>
<feGaussianBlur stdDeviation="0.3"/>
<feComposite in2="hardAlpha" operator="out"/>
<feColorMatrix type="matrix" values="0 0 0 0 0.921569 0 0 0 0 0.47451 0 0 0 0 0.133333 0 0 0 1 0"/>
<feBlend mode="normal" in2="BackgroundImageFix" result="effect1_dropShadow_38_241"/>
<feBlend mode="normal" in="SourceGraphic" in2="effect1_dropShadow_38_241" result="shape"/>
</filter>
<filter id="filter1_i_38_241" x="4" y="24.0714" width="55.882" height="35.9287" filterUnits="userSpaceOnUse" color-interpolation-filters="sRGB">
<feFlood flood-opacity="0" result="BackgroundImageFix"/>
<feBlend mode="normal" in="SourceGraphic" in2="BackgroundImageFix" result="shape"/>
<feColorMatrix in="SourceAlpha" type="matrix" values="0 0 0 0 0 0 0 0 0 0 0 0 0 0 0 0 0 0 127 0" result="hardAlpha"/>
<feOffset/>
<feGaussianBlur stdDeviation="4"/>
<feComposite in2="hardAlpha" operator="arithmetic" k2="-1" k3="1"/>
<feColorMatrix type="matrix" values="0 0 0 0 0.701961 0 0 0 0 0.698039 0 0 0 0 0.992157 0 0 0 1 0"/>
<feBlend mode="normal" in2="shape" result="effect1_innerShadow_38_241"/>
</filter>
<filter id="filter2_ii_38_241" x="4" y="24.0714" width="55.882" height="35.9287" filterUnits="userSpaceOnUse" color-interpolation-filters="sRGB">
<feFlood flood-opacity="0" result="BackgroundImageFix"/>
<feBlend mode="normal" in="SourceGraphic" in2="BackgroundImageFix" result="shape"/>
<feColorMatrix in="SourceAlpha" type="matrix" values="0 0 0 0 0 0 0 0 0 0 0 0 0 0 0 0 0 0 127 0" result="hardAlpha"/>
<feOffset/>
<feGaussianBlur stdDeviation="6"/>
<feComposite in2="hardAlpha" operator="arithmetic" k2="-1" k3="1"/>
<feColorMatrix type="matrix" values="0 0 0 0 0.701961 0 0 0 0 0.698039 0 0 0 0 0.992157 0 0 0 1 0"/>
<feBlend mode="normal" in2="shape" result="effect1_innerShadow_38_241"/>
<feColorMatrix in="SourceAlpha" type="matrix" values="0 0 0 0 0 0 0 0 0 0 0 0 0 0 0 0 0 0 127 0" result="hardAlpha"/>
<feOffset/>
<feGaussianBlur stdDeviation="2"/>
<feComposite in2="hardAlpha" operator="arithmetic" k2="-1" k3="1"/>
<feColorMatrix type="matrix" values="0 0 0 0 0.701961 0 0 0 0 0.698039 0 0 0 0 0.992157 0 0 0 1 0"/>
<feBlend mode="normal" in2="effect1_innerShadow_38_241" result="effect2_innerShadow_38_241"/>
</filter>
<linearGradient id="paint0_linear_38_241" x1="36.4341" y1="14.934" x2="14.0581" y2="43.482" gradientUnits="userSpaceOnUse">
<stop stop-color="#FC8B23"/>
<stop offset="1" stop-color="#E67639"/>
</linearGradient>
<radialGradient id="paint1_radial_38_241" cx="0" cy="0" r="1" gradientUnits="userSpaceOnUse" gradientTransform="translate(28.0401 9.93602) rotate(138.155) scale(5.50804 4.8598)">
<stop offset="0.3" stop-color="#FFA13A"/>
<stop offset="1" stop-color="#FFA13A" stop-opacity="0"/>
</radialGradient>
<radialGradient id="paint2_radial_38_241" cx="0" cy="0" r="1" gradientUnits="userSpaceOnUse" gradientTransform="translate(13.7081 8.19602) rotate(67.8105) scale(8.75651 7.72594)">
<stop offset="0.3" stop-color="#FF942A"/>
<stop offset="1" stop-color="#FF942A" stop-opacity="0"/>
</radialGradient>
<radialGradient id="paint3_radial_38_241" cx="0" cy="0" r="1" gradientUnits="userSpaceOnUse" gradientTransform="translate(37.2245 16.365) rotate(-164.745) scale(3.49134 4.8342)">
<stop offset="0.3" stop-color="#FFA13D"/>
<stop offset="1" stop-color="#FFA13D" stop-opacity="0"/>
</radialGradient>
<radialGradient id="paint4_radial_38_241" cx="0" cy="0" r="1" gradientUnits="userSpaceOnUse" gradientTransform="translate(44.2653 21.4479) rotate(154.195) scale(6.1903 4.57198)">
<stop offset="0.3" stop-color="#FFA13D"/>
<stop offset="1" stop-color="#FFA13D" stop-opacity="0"/>
</radialGradient>
<radialGradient id="paint5_radial_38_241" cx="0" cy="0" r="1" gradientUnits="userSpaceOnUse" gradientTransform="translate(45.6138 31.9185) rotate(-173.379) scale(6.90516 3.8913)">
<stop offset="0.3" stop-color="#FFA13D"/>
<stop offset="1" stop-color="#FFA13D" stop-opacity="0"/>
</radialGradient>
<radialGradient id="paint6_radial_38_241" cx="0" cy="0" r="1" gradientUnits="userSpaceOnUse" gradientTransform="translate(39.4297 39.944) rotate(-43.964) scale(6.26354 6.03418)">
<stop stop-color="#E0762A"/>
<stop offset="1" stop-color="#E0762A" stop-opacity="0"/>
</radialGradient>
<radialGradient id="paint7_radial_38_241" cx="0" cy="0" r="1" gradientUnits="userSpaceOnUse" gradientTransform="translate(10.4019 38.4738) rotate(-127.747) scale(4.80194 4.6261)">
<stop stop-color="#E0762A"/>
<stop offset="1" stop-color="#E0762A" stop-opacity="0"/>
</radialGradient>
<radialGradient id="paint8_radial_38_241" cx="0" cy="0" r="1" gradientUnits="userSpaceOnUse" gradientTransform="translate(3.84808 22.244) rotate(25.278) scale(4.87632 5.89375)">
<stop stop-color="#F0851D"/>
<stop offset="1" stop-color="#F0851D" stop-opacity="0"/>
</radialGradient>
<radialGradient id="paint9_radial_38_241" cx="0" cy="0" r="1" gradientUnits="userSpaceOnUse" gradientTransform="translate(32.9561 46.9) rotate(-142.487) scale(5.68529 5.36359)">
<stop offset="0.337" stop-color="#E3745B"/>
<stop offset="1" stop-color="#E3745B" stop-opacity="0"/>
</radialGradient>
<radialGradient id="paint10_radial_38_241" cx="0" cy="0" r="1" gradientUnits="userSpaceOnUse" gradientTransform="translate(33.1581 19.454) rotate(117.739) scale(27.9436 34.5076)">
<stop offset="0.172" stop-color="#FFD13D"/>
<stop offset="1" stop-color="#D89A29"/>
</radialGradient>
<radialGradient id="paint11_radial_38_241" cx="0" cy="0" r="1" gradientUnits="userSpaceOnUse" gradientTransform="translate(18.705 37.5436) rotate(-140.631) scale(9.74804 8.23018)">
<stop offset="0.341" stop-color="#DCA225"/>
<stop offset="1" stop-color="#DCA225" stop-opacity="0"/>
</radialGradient>
<radialGradient id="paint12_radial_38_241" cx="0" cy="0" r="1" gradientUnits="userSpaceOnUse" gradientTransform="translate(37.0621 25.852) rotate(168.299) scale(33.3488 28.156)">
<stop offset="0.62" stop-color="#DCA225" stop-opacity="0"/>
<stop offset="1" stop-color="#DCA225"/>
</radialGradient>
<radialGradient id="paint13_radial_38_241" cx="0" cy="0" r="1" gradientUnits="userSpaceOnUse" gradientTransform="translate(23.9677 35.901) rotate(-110.468) scale(7.15118 6.94566)">
<stop offset="0.307" stop-color="#CECDFF"/>
<stop offset="1" stop-color="#B7B6FA"/>
</radialGradient>
<radialGradient id="paint14_radial_38_241" cx="0" cy="0" r="1" gradientUnits="userSpaceOnUse" gradientTransform="translate(27.0014 34.1042) rotate(-148.811) scale(2.89932 9.64124)">
<stop offset="0.401" stop-color="#B8B7FF"/>
<stop offset="1" stop-color="#B8B7FF" stop-opacity="0"/>
</radialGradient>
<radialGradient id="paint15_radial_38_241" cx="0" cy="0" r="1" gradientUnits="userSpaceOnUse" gradientTransform="translate(32.8335 46.6595) rotate(-106.955) scale(25.984 14.599)">
<stop stop-color="#D6CCFF"/>
<stop offset="1" stop-color="#D6CCFF" stop-opacity="0"/>
</radialGradient>
<radialGradient id="paint16_radial_38_241" cx="0" cy="0" r="1" gradientUnits="userSpaceOnUse" gradientTransform="translate(56.628 34.384) rotate(147.006) scale(24.2128 27.046)">
<stop offset="0.19" stop-color="#F2F0FF"/>
<stop offset="1" stop-color="#F2F0FF" stop-opacity="0"/>
</radialGradient>
<radialGradient id="paint17_radial_38_241" cx="0" cy="0" r="1" gradientUnits="userSpaceOnUse" gradientTransform="translate(18.1314 40.9001) rotate(147.319) scale(19.086 23.2578)">
<stop stop-color="#F2F0FF"/>
<stop offset="0.696" stop-color="#F2F0FF" stop-opacity="0"/>
</radialGradient>
<radialGradient id="paint18_radial_38_241" cx="0" cy="0" r="1" gradientUnits="userSpaceOnUse" gradientTransform="translate(22.528 32.868) rotate(71.906) scale(16.1031 6.00334)">
<stop stop-color="#F2F0FF"/>
<stop offset="1" stop-color="#F2F0FF" stop-opacity="0"/>
</radialGradient>
</defs>
</svg>
